<?xml version="1.0" standalone="no"?>
<!DOCTYPE svg PUBLIC "-//W3C//DTD SVG 20010904//EN"
 "http://www.w3.org/TR/2001/REC-SVG-20010904/DTD/svg10.dtd">
<svg version="1.0" xmlns="http://www.w3.org/2000/svg"
 width="331.000000pt" height="331.000000pt" viewBox="0 0 331.000000 331.000000"
 preserveAspectRatio="xMidYMid meet">
<metadata>
Created by potrace 1.14, written by Peter Selinger 2001-2017
</metadata>
<g transform="translate(0.000000,331.000000) scale(0.100000,-0.100000)"
fill="#000000" stroke="none">
<path d="M1450 3164 c-740 -96 -1306 -727 -1314 -1464 -1 -179 7 -266 38 -396
114 -468 443 -855 887 -1043 300 -127 668 -153 978 -69 356 97 655 311 875
626 112 161 206 406 241 627 14 88 13 341 -1 430 -71 441 -291 791 -660 1047
-285 199 -678 290 -1044 242z"/>
</g>
</svg>
